<svg width="896" height="97" viewBox="0 0 896 97" fill="none" xmlns="http://www.w3.org/2000/svg">
<path d="M60 0L73.4708 33.5127H117.063L81.7963 54.2246L95.2671 87.7373L60 67.0254L24.7329 87.7373L38.2037 54.2246L2.93661 33.5127H46.5292L60 0Z" fill="#F5DA77"/>
<path d="M254 0L267.471 33.5127H311.063L275.796 54.2246L289.267 87.7373L254 67.0254L218.733 87.7373L232.204 54.2246L196.937 33.5127H240.529L254 0Z" fill="#F5DA77"/>
<path d="M448 0L461.471 33.5127H505.063L469.796 54.2246L483.267 87.7373L448 67.0254L412.733 87.7373L426.204 54.2246L390.937 33.5127H434.529L448 0Z" fill="#F5DA77"/>
<path d="M642 0L655.471 33.5127H699.063L663.796 54.2246L677.267 87.7373L642 67.0254L606.733 87.7373L620.204 54.2246L584.937 33.5127H628.529L642 0Z" fill="#F5DA77"/>
<path d="M836 0L849.471 33.5127H893.063L857.796 54.2246L871.267 87.7373L836 67.0254L800.733 87.7373L814.204 54.2246L778.937 33.5127H822.529L836 0Z" fill="#F5DA77"/>
</svg>
